# xmcd CD database file
#
# Track frame offsets:
#	150
#	23535
#	55550
#	83015
#	107055
#	126990
#	140210
#	173520
#	196300
#	223355
#	243105
#	258825
#	285265
#
# Disc length: 4003 seconds
#
# Revision: 2
# Processed by: cddbd v1.5.2PL0 Copyright (c) Steve Scherf et al.
# Submitted via: CDex 1.51
#
DISCID=ad0fa10d
DTITLE=Stan Getz and Jimmy Raney - Vol. 113 - Live at Storyville, Boston 28 October 1951
DYEAR=1991
DGENRE=Jazz
TTITLE0=Budo
TTITLE1=The Song is You
TTITLE2=Parker 51
TTITLE3=Mosquito Knees
TTITLE4=Thou Swell
TTITLE5=Yesterdays
TTITLE6=Jumpin' with Symphony Sid
TTITLE7=Pennies from Heaven
TTITLE8=Move
TTITLE9=Rubberneck
TTITLE10=Hershey Bar
TTITLE11=Signal
TTITLE12=Everything Happens to Me
EXTD=YEAR: 1991
EXTT0=
EXTT1=
EXTT2=
EXTT3=
EXTT4=
EXTT5=
EXTT6=
EXTT7=
EXTT8=
EXTT9=
EXTT10=
EXTT11=
EXTT12=
PLAYORDER=
